<mxfile host="app.diagrams.net" modified="2023-06-07T08:21:56.799Z" agent="Mozilla/5.0 (Windows NT 10.0; Win64; x64) AppleWebKit/537.36 (KHTML, like Gecko) Chrome/112.0.0.0 Safari/537.36" etag="95g1alG4l2Kji9jr0hrT" version="21.3.7" type="github">
  <diagram id="kgpKYQtTHZ0yAKxKKP6v" name="Page-1">
    <mxGraphModel dx="1050" dy="485" grid="1" gridSize="10" guides="1" tooltips="1" connect="1" arrows="1" fold="1" page="1" pageScale="1" pageWidth="850" pageHeight="1100" math="0" shadow="0">
      <root>
        <mxCell id="0" />
        <mxCell id="1" parent="0" />
        <mxCell id="hSn98TIKcwbW9a03WMS8-4" value="区块链账本" style="html=1;whiteSpace=wrap;" parent="1" vertex="1">
          <mxGeometry x="200" y="200" width="110" height="50" as="geometry" />
        </mxCell>
        <mxCell id="hSn98TIKcwbW9a03WMS8-28" style="edgeStyle=orthogonalEdgeStyle;rounded=0;orthogonalLoop=1;jettySize=auto;html=1;exitX=0;exitY=0.5;exitDx=0;exitDy=0;entryX=1;entryY=0.5;entryDx=0;entryDy=0;dashed=1;" parent="1" source="hSn98TIKcwbW9a03WMS8-5" target="hSn98TIKcwbW9a03WMS8-4" edge="1">
          <mxGeometry relative="1" as="geometry" />
        </mxCell>
        <mxCell id="hSn98TIKcwbW9a03WMS8-5" value="区块" style="html=1;whiteSpace=wrap;" parent="1" vertex="1">
          <mxGeometry x="370" y="200" width="110" height="50" as="geometry" />
        </mxCell>
        <mxCell id="hSn98TIKcwbW9a03WMS8-26" style="edgeStyle=orthogonalEdgeStyle;rounded=0;orthogonalLoop=1;jettySize=auto;html=1;exitX=0;exitY=0.5;exitDx=0;exitDy=0;entryX=1;entryY=0.5;entryDx=0;entryDy=0;dashed=1;" parent="1" source="hSn98TIKcwbW9a03WMS8-6" target="hSn98TIKcwbW9a03WMS8-5" edge="1">
          <mxGeometry relative="1" as="geometry" />
        </mxCell>
        <mxCell id="hSn98TIKcwbW9a03WMS8-27" style="edgeStyle=orthogonalEdgeStyle;rounded=0;orthogonalLoop=1;jettySize=auto;html=1;exitX=1;exitY=0.5;exitDx=0;exitDy=0;entryX=0;entryY=0.5;entryDx=0;entryDy=0;dashed=1;" parent="1" source="hSn98TIKcwbW9a03WMS8-6" target="hSn98TIKcwbW9a03WMS8-7" edge="1">
          <mxGeometry relative="1" as="geometry" />
        </mxCell>
        <mxCell id="hSn98TIKcwbW9a03WMS8-6" value="交易" style="html=1;whiteSpace=wrap;" parent="1" vertex="1">
          <mxGeometry x="530" y="200" width="110" height="50" as="geometry" />
        </mxCell>
        <mxCell id="hSn98TIKcwbW9a03WMS8-7" value="交易池" style="html=1;whiteSpace=wrap;" parent="1" vertex="1">
          <mxGeometry x="680" y="200" width="110" height="50" as="geometry" />
        </mxCell>
        <mxCell id="hSn98TIKcwbW9a03WMS8-25" style="edgeStyle=orthogonalEdgeStyle;rounded=0;orthogonalLoop=1;jettySize=auto;html=1;exitX=1;exitY=0.5;exitDx=0;exitDy=0;entryX=0.691;entryY=0.96;entryDx=0;entryDy=0;entryPerimeter=0;dashed=1;" parent="1" source="hSn98TIKcwbW9a03WMS8-8" target="hSn98TIKcwbW9a03WMS8-6" edge="1">
          <mxGeometry relative="1" as="geometry" />
        </mxCell>
        <mxCell id="hSn98TIKcwbW9a03WMS8-8" value="广播协议" style="html=1;whiteSpace=wrap;" parent="1" vertex="1">
          <mxGeometry x="460" y="302" width="110" height="30" as="geometry" />
        </mxCell>
        <mxCell id="hSn98TIKcwbW9a03WMS8-9" value="节点" style="html=1;whiteSpace=wrap;" parent="1" vertex="1">
          <mxGeometry x="460" y="353" width="110" height="30" as="geometry" />
        </mxCell>
        <mxCell id="hSn98TIKcwbW9a03WMS8-10" value="" style="swimlane;childLayout=stackLayout;resizeParent=1;resizeParentMax=0;horizontal=0;startSize=20;horizontalStack=0;html=1;fillColor=default;rotation=0;" parent="1" vertex="1">
          <mxGeometry x="160" y="45" width="660" height="480" as="geometry" />
        </mxCell>
        <mxCell id="hSn98TIKcwbW9a03WMS8-11" value="激励层" style="swimlane;startSize=20;horizontal=0;html=1;" parent="hSn98TIKcwbW9a03WMS8-10" vertex="1">
          <mxGeometry x="20" width="640" height="120" as="geometry" />
        </mxCell>
        <mxCell id="hSn98TIKcwbW9a03WMS8-3" value="奖励" style="html=1;whiteSpace=wrap;" parent="hSn98TIKcwbW9a03WMS8-11" vertex="1">
          <mxGeometry x="190" y="33" width="110" height="50" as="geometry" />
        </mxCell>
        <mxCell id="hSn98TIKcwbW9a03WMS8-12" value="共识层" style="swimlane;startSize=20;horizontal=0;html=1;" parent="hSn98TIKcwbW9a03WMS8-10" vertex="1">
          <mxGeometry x="20" y="120" width="640" height="120" as="geometry" />
        </mxCell>
        <mxCell id="hSn98TIKcwbW9a03WMS8-13" value="网络层" style="swimlane;startSize=20;horizontal=0;html=1;" parent="hSn98TIKcwbW9a03WMS8-10" vertex="1">
          <mxGeometry x="20" y="240" width="640" height="120" as="geometry" />
        </mxCell>
        <mxCell id="hSn98TIKcwbW9a03WMS8-16" style="swimlane;startSize=20;horizontal=0;html=1;" parent="hSn98TIKcwbW9a03WMS8-10" vertex="1">
          <mxGeometry x="20" y="360" width="640" height="120" as="geometry" />
        </mxCell>
        <mxCell id="hSn98TIKcwbW9a03WMS8-15" value="通信层" style="swimlane;startSize=20;horizontal=0;html=1;" parent="1" vertex="1">
          <mxGeometry x="180" y="405" width="640" height="120" as="geometry" />
        </mxCell>
        <mxCell id="hSn98TIKcwbW9a03WMS8-30" value="请求" style="shape=note2;boundedLbl=1;whiteSpace=wrap;html=1;size=25;verticalAlign=top;align=center;" parent="hSn98TIKcwbW9a03WMS8-15" vertex="1">
          <mxGeometry x="60" y="45" width="120" height="60" as="geometry" />
        </mxCell>
        <mxCell id="hSn98TIKcwbW9a03WMS8-19" value="" style="endArrow=open;startArrow=none;endFill=0;startFill=0;endSize=8;html=1;verticalAlign=bottom;labelBackgroundColor=none;strokeWidth=1;rounded=0;exitX=0.364;exitY=1;exitDx=0;exitDy=0;exitPerimeter=0;entryX=0;entryY=0.5;entryDx=0;entryDy=0;" parent="1" source="hSn98TIKcwbW9a03WMS8-4" target="hSn98TIKcwbW9a03WMS8-9" edge="1">
          <mxGeometry width="160" relative="1" as="geometry">
            <mxPoint x="340" y="260" as="sourcePoint" />
            <mxPoint x="240" y="370" as="targetPoint" />
            <Array as="points">
              <mxPoint x="240" y="368" />
            </Array>
          </mxGeometry>
        </mxCell>
        <mxCell id="hSn98TIKcwbW9a03WMS8-20" value="" style="endArrow=open;startArrow=none;endFill=0;startFill=0;endSize=8;html=1;verticalAlign=bottom;labelBackgroundColor=none;strokeWidth=1;rounded=0;entryX=1;entryY=0.5;entryDx=0;entryDy=0;" parent="1" target="hSn98TIKcwbW9a03WMS8-9" edge="1">
          <mxGeometry width="160" relative="1" as="geometry">
            <mxPoint x="740" y="250" as="sourcePoint" />
            <mxPoint x="500" y="260" as="targetPoint" />
            <Array as="points">
              <mxPoint x="740" y="368" />
            </Array>
          </mxGeometry>
        </mxCell>
        <mxCell id="hSn98TIKcwbW9a03WMS8-22" value="" style="html=1;verticalAlign=bottom;labelBackgroundColor=none;endArrow=open;endFill=0;dashed=1;rounded=0;exitX=0;exitY=0.5;exitDx=0;exitDy=0;entryX=0.4;entryY=0.98;entryDx=0;entryDy=0;entryPerimeter=0;" parent="1" source="hSn98TIKcwbW9a03WMS8-8" target="hSn98TIKcwbW9a03WMS8-5" edge="1">
          <mxGeometry width="160" relative="1" as="geometry">
            <mxPoint x="340" y="260" as="sourcePoint" />
            <mxPoint x="500" y="260" as="targetPoint" />
            <Array as="points">
              <mxPoint x="414" y="317" />
            </Array>
          </mxGeometry>
        </mxCell>
        <mxCell id="hSn98TIKcwbW9a03WMS8-24" value="" style="endArrow=open;startArrow=none;endFill=0;startFill=0;endSize=8;html=1;verticalAlign=bottom;dashed=1;labelBackgroundColor=none;rounded=0;exitX=0.5;exitY=0;exitDx=0;exitDy=0;entryX=0.5;entryY=1;entryDx=0;entryDy=0;" parent="1" source="hSn98TIKcwbW9a03WMS8-5" target="hSn98TIKcwbW9a03WMS8-3" edge="1">
          <mxGeometry width="160" relative="1" as="geometry">
            <mxPoint x="340" y="260" as="sourcePoint" />
            <mxPoint x="500" y="260" as="targetPoint" />
          </mxGeometry>
        </mxCell>
        <mxCell id="hSn98TIKcwbW9a03WMS8-34" value="" style="endArrow=classic;html=1;rounded=0;dashed=1;" parent="1" edge="1">
          <mxGeometry width="50" height="50" relative="1" as="geometry">
            <mxPoint x="680" y="550" as="sourcePoint" />
            <mxPoint x="730" y="550" as="targetPoint" />
            <Array as="points">
              <mxPoint x="690" y="550" />
            </Array>
          </mxGeometry>
        </mxCell>
        <mxCell id="hSn98TIKcwbW9a03WMS8-33" value="" style="endArrow=classic;html=1;rounded=0;" parent="1" edge="1">
          <mxGeometry width="50" height="50" relative="1" as="geometry">
            <mxPoint x="680" y="580" as="sourcePoint" />
            <mxPoint x="730" y="580" as="targetPoint" />
            <Array as="points">
              <mxPoint x="690" y="580" />
            </Array>
          </mxGeometry>
        </mxCell>
        <mxCell id="hSn98TIKcwbW9a03WMS8-35" value="依赖于" style="text;html=1;strokeColor=none;fillColor=none;align=center;verticalAlign=middle;whiteSpace=wrap;rounded=0;" parent="1" vertex="1">
          <mxGeometry x="740" y="535" width="60" height="30" as="geometry" />
        </mxCell>
        <mxCell id="hSn98TIKcwbW9a03WMS8-36" value="属于" style="text;html=1;strokeColor=none;fillColor=none;align=center;verticalAlign=middle;whiteSpace=wrap;rounded=0;" parent="1" vertex="1">
          <mxGeometry x="740" y="565" width="60" height="30" as="geometry" />
        </mxCell>
      </root>
    </mxGraphModel>
  </diagram>
</mxfile>
